<?xml version="1.0" encoding="utf-8"?>
<!-- Generator: Adobe Illustrator 15.0.0, SVG Export Plug-In . SVG Version: 6.00 Build 0)  -->
<!DOCTYPE svg PUBLIC "-//W3C//DTD SVG 1.1 Basic//EN" "http://www.w3.org/Graphics/SVG/1.1/DTD/svg11-basic.dtd">
<svg version="1.1" baseProfile="basic" id="Layer_1"
	 xmlns="http://www.w3.org/2000/svg" xmlns:xlink="http://www.w3.org/1999/xlink" x="0px" y="0px" width="400px" height="400px"
	 viewBox="0 0 400 400" xml:space="preserve">
<g>
	<path fill="#231F20" d="M35.502,10.221V3.864h-14v45.286H10.859v-3.214h6.643V3.864h-14v12.071H0.216V0.649h38.571v9.571H35.502z"
		/>
	<path fill="#231F20" d="M69.074,49.149v-3.214V23.721c0-1.904-0.5-3.357-1.5-4.357c-1-1.047-2.453-1.572-4.357-1.572
		c-2,0-4.143,0.572-6.429,1.714c-2.381,1.143-4.405,2.525-6.071,4.143v22.286h5.571v3.214h-9.143v-3.214h-0.143V3.864h-6.143V0.649
		h9.857v19.286c1.904-1.667,3.952-3,6.143-4c2.189-1,4.475-1.5,6.857-1.5c2.714,0,4.904,0.786,6.572,2.357
		c1.666,1.667,2.5,3.834,2.5,6.5v22.643h5.428v3.214H69.074z"/>
	<path fill="#231F20" d="M83.001,33.078c0.238,4,1.595,7.286,4.071,9.857c2.667,2.811,6.095,4.214,10.286,4.214
		c0.714,0,1.56-0.118,2.536-0.357c0.975-0.238,1.893-0.488,2.75-0.75c0.857-0.261,1.904-0.631,3.143-1.107l0.857,2.714
		c-1.382,0.524-2.572,0.941-3.572,1.25s-2.071,0.595-3.214,0.857c-1.143,0.261-2.167,0.393-3.072,0.393
		c-5.048,0-9.214-1.69-12.5-5.071c-3.286-3.333-4.929-7.595-4.929-12.786c0-5.143,1.619-9.404,4.857-12.786
		c3.238-3.38,7.357-5.071,12.357-5.071c4.857,0,8.833,1.643,11.929,4.929c3.047,3.239,4.714,7.81,5,13.714H83.001z M105.359,21.006
		c-2.382-2.286-5.405-3.428-9.072-3.428c-3.857,0-7.048,1.405-9.571,4.214c-1.857,2-3.048,4.691-3.571,8.072h26.428
		C109.096,26.292,107.691,23.34,105.359,21.006z"/>
	<path fill="#231F20" d="M45.002,129.435c-4.524,4.096-10.262,6.143-17.214,6.143c-7.333,0-13.382-2.333-18.143-7
		c-4.714-4.618-7.072-10.618-7.072-18c0-7.238,2.309-13.19,6.929-17.857c4.618-4.761,10.404-7.143,17.357-7.143
		c3.714,0,7.261,0.81,10.643,2.428c3.333,1.667,6.047,3.905,8.143,6.714v-4.786h3.214v12.286h-3.214
		c-1.191-4.143-3.596-7.38-7.214-9.714c-3.571-2.286-7.405-3.428-11.5-3.428c-6,0-10.882,2-14.643,6
		c-3.81,4.096-5.714,9.262-5.714,15.5c0,6.239,1.976,11.382,5.929,15.429c4,4.048,9.118,6.071,15.357,6.071
		c5,0,9.38-1.381,13.143-4.143c3.714-2.761,5.904-6.666,6.571-11.714h-20v-3.214h24.143
		C51.62,119.912,49.383,125.388,45.002,129.435z"/>
	<path fill="#231F20" d="M75.431,134.864v-4.786c-1.857,1.667-3.857,2.953-6,3.857c-2.286,0.952-4.357,1.429-6.214,1.429
		c-3.048,0-5.548-0.976-7.5-2.929c-2-2-3-4.357-3-7.071c0-3,1.143-5.476,3.428-7.429c2.333-2,5.404-3,9.214-3
		c1.333,0,2.904,0.214,4.714,0.643c1.761,0.429,3.547,1.143,5.357,2.143v-8c0-2.475-0.811-4.238-2.429-5.286
		c-1.667-1.095-3.857-1.643-6.572-1.643c-0.714,0-1.512,0.096-2.393,0.286c-0.882,0.191-1.703,0.393-2.464,0.607
		c-0.762,0.214-1.667,0.489-2.714,0.821l-0.929-2.214c1.095-0.429,2.072-0.786,2.929-1.072c0.857-0.286,1.797-0.536,2.821-0.75
		c1.023-0.214,1.988-0.321,2.893-0.321c4.095,0,7.214,0.786,9.357,2.357c2.143,1.572,3.214,3.977,3.214,7.214v21.929h5.643v3.214
		H75.431z M75.431,120.721c-1.429-0.904-2.905-1.618-4.429-2.143c-1.667-0.571-3.334-0.857-5-0.857c-3,0-5.334,0.763-7,2.286
		c-1.667,1.524-2.5,3.405-2.5,5.643c0,1.857,0.666,3.453,2,4.786c1.38,1.382,3.238,2.072,5.571,2.072c2,0,4.023-0.523,6.071-1.572
		c2.143-1.095,3.904-2.428,5.286-4V120.721z"/>
	<path fill="#231F20" d="M108.86,103.721c-4.857,0-8.453,1.025-10.786,3.072c-2.334,2.048-3.5,5.286-3.5,9.714v15.143h6.929v3.214
		H90.86v-3.214v-27.357h-6.429v-3.214h10.143v6c0.047-0.095,0.25-0.429,0.607-1c0.357-0.572,0.893-1.261,1.607-2.072
		c0.714-0.809,1.475-1.428,2.286-1.857c0.618-0.333,1.333-0.643,2.143-0.929c0.81-0.286,1.654-0.511,2.536-0.678
		c0.88-0.167,1.761-0.297,2.643-0.393c0.881-0.095,1.702-0.118,2.464-0.071l1.357,0.071v3.571H108.86z"/>
	<path fill="#231F20" d="M140.003,134.864v-6.714c-1.811,2.667-3.811,4.524-6,5.571c-2.286,1.096-4.643,1.643-7.072,1.643
		c-4.762,0-8.739-1.643-11.929-4.929c-3.19-3.333-4.786-7.475-4.786-12.428c0-5.143,1.547-9.404,4.643-12.786
		c3.143-3.38,7.095-5.071,11.857-5.071c2.381,0,4.761,0.571,7.143,1.714c2.286,1.191,4.333,3.262,6.143,6.214v-18.5v-3.214h3.714
		v45.286h6.143v3.214H140.003z M136.217,107.435c-2.571-2.809-5.714-4.214-9.428-4.214c-3.763,0-6.857,1.405-9.286,4.214
		c-2.524,2.905-3.786,6.429-3.786,10.572c0,3.953,1.261,7.333,3.786,10.143c2.572,2.762,5.714,4.143,9.429,4.143
		c3.857,0,7-1.357,9.429-4.072c2.476-2.761,3.714-6.237,3.714-10.428C140.074,113.697,138.789,110.246,136.217,107.435z"/>
	<path fill="#231F20" d="M154.218,118.792c0.238,4,1.595,7.286,4.071,9.857c2.667,2.811,6.095,4.214,10.286,4.214
		c0.714,0,1.56-0.118,2.536-0.357c0.975-0.238,1.893-0.488,2.75-0.75c0.857-0.261,1.904-0.631,3.143-1.107l0.857,2.714
		c-1.382,0.524-2.572,0.941-3.572,1.25s-2.071,0.595-3.214,0.857c-1.143,0.261-2.167,0.393-3.072,0.393
		c-5.048,0-9.214-1.69-12.5-5.071c-3.286-3.333-4.929-7.595-4.929-12.786c0-5.143,1.619-9.404,4.857-12.786
		c3.238-3.38,7.357-5.071,12.357-5.071c4.857,0,8.833,1.643,11.929,4.929c3.047,3.239,4.714,7.81,5,13.714H154.218z
		 M176.575,106.721c-2.382-2.286-5.405-3.428-9.072-3.428c-3.857,0-7.048,1.405-9.571,4.214c-1.857,2-3.048,4.691-3.571,8.072
		h26.428C180.312,112.006,178.908,109.055,176.575,106.721z"/>
	<path fill="#231F20" d="M212.146,134.864v-3.214v-22.214c0-1.904-0.5-3.357-1.5-4.357c-1-1.047-2.429-1.572-4.286-1.572
		c-2,0-4.143,0.572-6.429,1.714c-2.334,1.191-4.334,2.572-6,4.143v22.286h5.5v3.214h-9.214v-3.214v-27.357h-6.143v-3.214h9.857
		v4.571c1.904-1.667,3.952-3,6.143-4c2.19-1,4.452-1.5,6.786-1.5c2.666,0,4.833,0.786,6.5,2.357c1.666,1.667,2.5,3.834,2.5,6.5
		v22.643h5.357v3.214H212.146z"/>
	<path fill="#231F20" d="M30.859,216.436c-3.286,3.43-7.311,5.143-12.072,5.143c-4.81,0-8.81-1.713-12-5.143
		c-3.239-3.475-4.857-7.715-4.857-12.715c0-5.094,1.595-9.332,4.786-12.713c3.189-3.429,7.214-5.143,12.071-5.143
		c4.761,0,8.761,1.714,12,5.143c3.238,3.477,4.857,7.714,4.857,12.713C35.645,208.721,34.049,212.961,30.859,216.436z
		 M28.216,193.364c-2.477-2.761-5.62-4.143-9.429-4.143c-3.81,0-6.929,1.357-9.357,4.072c-2.477,2.762-3.714,6.239-3.714,10.428
		c0,4.191,1.214,7.645,3.643,10.357c2.476,2.764,5.619,4.143,9.429,4.143c3.809,0,6.929-1.355,9.357-4.07
		c2.475-2.762,3.714-6.238,3.714-10.43C31.859,199.532,30.645,196.079,28.216,193.364z"/>
	<path fill="#231F20" d="M55.216,178.579c-0.333-1.333-0.882-2.333-1.643-3c-0.811-0.714-1.811-1.071-3-1.071
		c-1.477,0-2.596,0.453-3.357,1.357c-0.81,0.953-1.214,2.333-1.214,4.143v6.786h6.643v3.214h-6.643v27.358h6.643v3.213H42.359
		v-3.213h-0.072v-27.358h-5.214v-3.214h5.214v-6.072c0-2.809,0.761-5.095,2.286-6.857c1.571-1.714,3.595-2.571,6.071-2.571
		c2.286,0,4.071,0.691,5.357,2.071c1.381,1.382,2.214,2.953,2.5,4.714L55.216,178.579z"/>
	<path fill="#231F20" d="M33.788,269.65v-8.645H10.359v18.715h17.857v3.285l-17.857-0.07v20.143v3.215H0.073v-3.215h6.286v-42.072
		H0.073v-3.213h36.929v11.857H33.788z"/>
	<path fill="#231F20" d="M60.002,302.15c-3.286,3.428-7.311,5.143-12.072,5.143c-4.81,0-8.81-1.715-12-5.143
		c-3.239-3.477-4.857-7.715-4.857-12.715c0-5.096,1.595-9.332,4.786-12.715c3.189-3.428,7.214-5.143,12.071-5.143
		c4.761,0,8.761,1.715,12,5.143c3.238,3.477,4.857,7.715,4.857,12.715S63.192,298.674,60.002,302.15z M57.359,279.078
		c-2.477-2.762-5.62-4.143-9.429-4.143c-3.81,0-6.929,1.357-9.357,4.07c-2.477,2.764-3.714,6.24-3.714,10.43
		c0,4.191,1.214,7.643,3.643,10.357c2.476,2.762,5.619,4.143,9.429,4.143c3.809,0,6.929-1.357,9.357-4.072
		c2.475-2.76,3.714-6.236,3.714-10.428C61.002,285.246,59.788,281.793,57.359,279.078z"/>
	<path fill="#231F20" d="M90.216,275.15c-4.857,0-8.453,1.023-10.786,3.07c-2.334,2.049-3.5,5.285-3.5,9.715v15.143h6.929v3.215
		H72.216v-3.215v-27.357h-6.429v-3.215H75.93v6c0.047-0.094,0.25-0.428,0.607-1c0.357-0.57,0.893-1.26,1.607-2.07
		c0.714-0.809,1.475-1.43,2.286-1.857c0.618-0.332,1.333-0.643,2.143-0.928c0.81-0.287,1.654-0.512,2.536-0.68
		c0.88-0.166,1.761-0.297,2.643-0.393c0.881-0.096,1.702-0.119,2.464-0.072l1.357,0.072v3.572H90.216z"/>
	<path fill="#231F20" d="M120.074,306.293l-20-17.43v14.215h6.214v3.215h-9.857v-3.215h-0.071v-42.072h-6.214v-3.213h9.928v29.857
		c1.523-1,3.273-2.18,5.25-3.537c1.976-1.357,3.929-2.689,5.857-4c1.929-1.309,3.75-2.559,5.464-3.75
		c1.714-1.189,3.047-2.117,4-2.785c0.952-0.666,1.476-1.023,1.571-1.072h4.571v3.215h-3.643l-18.5,12.643l17.571,14.715h5.143v3.215
		H120.074z"/>
	<path fill="#231F20" d="M134.145,306.293v-3.215h-0.071v-27.357h-5.929v-3.215h9.643v30.572h5.786v3.215H134.145z M136.93,261.936
		c-0.571,0.57-1.239,0.857-2,0.857c-0.762,0-1.429-0.287-2-0.857c-0.571-0.572-0.857-1.238-0.857-2c0-0.809,0.286-1.5,0.857-2.072
		c0.571-0.57,1.238-0.857,2-0.857c0.761,0,1.429,0.287,2,0.857c0.571,0.572,0.857,1.24,0.857,2
		C137.787,260.674,137.501,261.363,136.93,261.936z"/>
	<path fill="#231F20" d="M172.931,306.293v-3.215v-22.215c0-1.904-0.5-3.357-1.5-4.357c-1-1.047-2.429-1.57-4.286-1.57
		c-2,0-4.143,0.57-6.429,1.715c-2.334,1.189-4.334,2.57-6,4.143v22.285h5.5v3.215h-9.214v-3.215v-27.357h-6.143v-3.215h9.857v4.572
		c1.904-1.666,3.952-3,6.143-4c2.19-1,4.452-1.5,6.786-1.5c2.666,0,4.833,0.785,6.5,2.357c1.666,1.668,2.5,3.834,2.5,6.5v22.643
		h5.357v3.215H172.931z"/>
	<path fill="#231F20" d="M217.074,275.721v31.357c0,4.619-1.596,8.309-4.786,11.072c-3.191,2.76-7.311,4.143-12.357,4.143
		c-0.905,0-1.964-0.107-3.178-0.322c-1.214-0.215-2.214-0.418-3-0.607c-0.786-0.189-1.227-0.311-1.322-0.357l0.857-3.213
		c1.047,0.236,1.928,0.428,2.643,0.57s1.476,0.273,2.286,0.393c0.81,0.119,1.5,0.18,2.072,0.18c3.857,0,7-1,9.429-3
		c2.428-2,3.643-4.834,3.643-8.5v-8.572c-1.571,2.811-3.571,4.834-6,6.072c-2.477,1.238-4.977,1.857-7.5,1.857
		c-4.714,0-8.691-1.619-11.929-4.857c-3.191-3.238-4.786-7.309-4.786-12.215c0-5.047,1.618-9.332,4.857-12.857
		c3.286-3.523,7.261-5.285,11.928-5.285c2.286,0,4.572,0.549,6.857,1.643c2.238,1.143,4.429,3.357,6.571,6.643v-7.357h9.929v3.215
		H217.074z M209.502,279.078c-2.667-2.857-5.811-4.285-9.429-4.285c-3.714,0-6.834,1.404-9.357,4.213
		c-2.524,2.906-3.786,6.383-3.786,10.43c0,4.191,1.214,7.596,3.643,10.215c2.523,2.666,5.689,4,9.5,4
		c3.761,0,6.904-1.357,9.429-4.072c2.571-2.715,3.857-6.096,3.857-10.143S212.074,281.936,209.502,279.078z"/>
	<path fill="#231F20" d="M32.859,368.15c-2.811,2.57-6.548,3.857-11.214,3.857H10.573v16.785v3.215H0.145v-3.215h6.428v-42.072
		H0.145v-3.213h20.786c5.047,0,9,1.238,11.857,3.713c2.857,2.525,4.286,6.049,4.286,10.572
		C37.073,362.127,35.668,365.578,32.859,368.15z M30.002,349.436c-2.096-1.809-5.357-2.715-9.786-2.715h-9.643v22.072h9.643
		c4.143,0,7.309-0.881,9.5-2.643c2.238-1.809,3.357-4.453,3.357-7.93C33.073,354.127,32.049,351.197,30.002,349.436z"/>
	<path fill="#231F20" d="M58.002,392.008v-4.787c-1.857,1.668-3.857,2.953-6,3.857c-2.286,0.953-4.357,1.43-6.214,1.43
		c-3.048,0-5.548-0.977-7.5-2.93c-2-2-3-4.357-3-7.07c0-3,1.143-5.477,3.428-7.43c2.333-2,5.404-3,9.214-3
		c1.333,0,2.904,0.215,4.714,0.643c1.761,0.43,3.547,1.145,5.357,2.145v-8c0-2.477-0.811-4.238-2.429-5.287
		c-1.667-1.094-3.857-1.643-6.572-1.643c-0.714,0-1.512,0.096-2.393,0.285c-0.882,0.191-1.703,0.395-2.464,0.607
		c-0.762,0.215-1.667,0.49-2.714,0.822l-0.929-2.215c1.095-0.428,2.072-0.785,2.929-1.07c0.857-0.287,1.797-0.537,2.821-0.75
		c1.023-0.215,1.988-0.322,2.893-0.322c4.095,0,7.214,0.785,9.357,2.357c2.143,1.57,3.214,3.977,3.214,7.215v21.928h5.643v3.215
		H58.002z M58.002,377.865c-1.429-0.904-2.905-1.619-4.429-2.145c-1.667-0.57-3.334-0.855-5-0.855c-3,0-5.334,0.762-7,2.285
		c-1.667,1.523-2.5,3.404-2.5,5.643c0,1.857,0.666,3.453,2,4.785c1.38,1.383,3.238,2.072,5.571,2.072c2,0,4.023-0.523,6.071-1.572
		c2.143-1.094,3.904-2.428,5.286-4V377.865z"/>
	<path fill="#231F20" d="M80.359,392.793c-2.048,0-3.571-0.525-4.571-1.572s-1.5-2.643-1.5-4.785v-25h-6v-3.215h6v-7.57l3.714-0.072
		v7.643h7.071v3.215h-7.071v24.285c0,1.383,0.238,2.334,0.714,2.857c0.475,0.572,1.261,0.857,2.357,0.857l4-0.643v3.215
		L80.359,392.793z"/>
	<path fill="#231F20" d="M113.146,392.008v-3.215v-22.215c0-1.904-0.5-3.357-1.5-4.357c-1-1.047-2.453-1.57-4.357-1.57
		c-2,0-4.143,0.57-6.429,1.715c-2.381,1.143-4.405,2.523-6.071,4.143v22.285h5.571v3.215h-9.143v-3.215h-0.143v-42.072h-6.143
		v-3.213h9.857v19.285c1.904-1.666,3.952-3,6.143-4c2.189-1,4.475-1.5,6.857-1.5c2.714,0,4.904,0.785,6.572,2.357
		c1.666,1.668,2.5,3.834,2.5,6.5v22.643h5.428v3.215H113.146z"/>
	<path fill="#231F20" d="M150.572,390.293c-2.381,1.857-5.5,2.785-9.357,2.785c-2.143,0-4.072-0.381-5.786-1.143
		c-1.811-0.809-3.357-2.215-4.643-4.215v4.287h-3.286v-11.715h3.286c0.047,3.096,1.047,5.525,3,7.285
		c1.952,1.764,4.547,2.643,7.786,2.643c2.476,0,4.618-0.643,6.429-1.928c1.809-1.381,2.714-3.047,2.714-5
		c0-2.047-0.691-3.547-2.071-4.5c-1.382-1.047-3.954-1.881-7.714-2.5c-4.096-0.715-7.025-1.738-8.786-3.072
		c-1.857-1.332-2.786-3.475-2.786-6.428c0-2.904,1.023-5.215,3.072-6.928c2.047-1.715,4.571-2.572,7.571-2.572
		c1.952,0,3.689,0.357,5.214,1.072c1.571,0.762,2.952,1.928,4.143,3.5v-2.645h3.143v9.645h-3.143
		c-0.048-2.477-0.953-4.5-2.714-6.072c-1.762-1.619-3.953-2.428-6.571-2.428c-2.239,0-4.024,0.619-5.357,1.855
		c-1.334,1.191-2,2.668-2,4.43c0,1.857,0.618,3.215,1.857,4.07c1.238,0.811,3.643,1.549,7.214,2.215
		c5.047,0.953,8.333,2.168,9.857,3.643c1.571,1.525,2.357,3.643,2.357,6.357C154.001,386.078,152.858,388.531,150.572,390.293z"/>
</g>
</svg>
